<svg xmlns="http://www.w3.org/2000/svg" version="1.1" width="400" height="400">
  <g>
    <path
        d="M0.000 200.000 L 0.000 400.000 200.000 400.000 L 400.000 400.000 400.000 200.000 L 400.000 0.000 200.000 0.000 L 0.000 0.000 0.000 200.000 M229.952 63.982 C 232.572 64.978,234.013 68.384,235.121 76.200 C 237.300 91.566,237.833 95.123,238.688 100.000 L 239.600 105.200 245.600 108.297 C 248.900 110.000,254.048 113.030,257.040 115.030 L 262.480 118.666 279.847 111.733 C 303.167 102.424,301.140 102.003,310.547 118.108 C 334.339 158.838,334.422 159.012,331.775 162.475 C 331.239 163.176,324.357 168.814,316.482 175.004 L 302.165 186.257 302.082 200.025 L 302.000 213.793 308.800 219.140 C 312.540 222.081,318.120 226.407,321.200 228.753 C 335.996 240.025,336.051 237.857,320.272 265.139 C 313.382 277.052,306.992 288.199,306.072 289.909 C 302.012 297.456,301.113 297.333,272.000 285.252 C 261.942 281.079,263.230 281.097,257.107 285.042 C 254.078 286.994,248.900 290.008,245.600 291.741 L 239.600 294.891 238.688 300.045 C 238.187 302.880,237.392 307.900,236.922 311.200 C 232.869 339.655,236.987 336.800,200.000 336.800 C 164.875 336.800,166.705 337.528,164.790 322.800 C 164.275 318.840,163.550 313.800,163.179 311.600 C 162.807 309.400,162.266 305.463,161.976 302.852 C 161.175 295.651,160.700 294.960,154.272 291.645 C 151.042 289.979,145.920 287.013,142.889 285.052 L 137.377 281.488 120.425 288.344 C 96.516 298.013,99.173 298.968,86.000 275.980 C 81.160 267.533,76.218 258.953,75.017 256.911 C 64.471 238.978,64.340 239.736,80.047 227.794 C 83.321 225.305,88.674 221.183,91.943 218.634 L 97.887 214.000 97.943 200.104 L 98.000 186.208 85.600 176.599 C 65.821 161.271,64.954 160.076,68.921 153.600 C 69.864 152.060,71.254 149.720,72.010 148.400 C 95.616 107.165,97.130 104.875,100.800 104.822 C 102.536 104.798,117.133 110.159,126.800 114.371 C 128.560 115.138,131.714 116.409,133.808 117.195 L 137.617 118.624 143.106 114.973 C 146.126 112.965,151.175 110.024,154.327 108.437 C 160.848 105.153,161.071 104.782,162.309 95.159 C 162.787 91.442,163.569 85.880,164.046 82.800 C 164.524 79.720,165.216 75.167,165.585 72.683 C 166.392 67.243,167.523 64.944,169.852 64.006 C 172.286 63.025,227.378 63.003,229.952 63.982 M194.800 152.451 C 193.920 152.652,191.222 153.218,188.804 153.709 C 149.047 161.789,139.263 217.153,173.600 239.739 C 217.381 268.536,268.516 216.300,239.128 172.800 C 229.878 159.107,208.551 149.317,194.800 152.451"
        stroke="none" fill="#757575" fill-rule="evenodd"/>
    <path
        d="M169.852 64.006 C 167.523 64.944,166.392 67.243,165.585 72.683 C 165.216 75.167,164.524 79.720,164.046 82.800 C 163.569 85.880,162.787 91.442,162.309 95.159 C 161.071 104.782,160.848 105.153,154.327 108.437 C 151.175 110.024,146.126 112.965,143.106 114.973 L 137.617 118.624 133.808 117.195 C 131.714 116.409,128.560 115.138,126.800 114.371 C 117.133 110.159,102.536 104.798,100.800 104.822 C 97.130 104.875,95.616 107.165,72.010 148.400 C 71.254 149.720,69.864 152.060,68.921 153.600 C 64.954 160.076,65.821 161.271,85.600 176.599 L 98.000 186.208 97.943 200.104 L 97.887 214.000 91.943 218.634 C 88.674 221.183,83.321 225.305,80.047 227.794 C 64.340 239.736,64.471 238.978,75.017 256.911 C 76.218 258.953,81.160 267.533,86.000 275.980 C 99.173 298.968,96.516 298.013,120.425 288.344 L 137.377 281.488 142.889 285.052 C 145.920 287.013,151.042 289.979,154.272 291.645 C 160.700 294.960,161.175 295.651,161.976 302.852 C 162.266 305.463,162.807 309.400,163.179 311.600 C 163.550 313.800,164.275 318.840,164.790 322.800 C 166.705 337.528,164.875 336.800,200.000 336.800 C 234.908 336.800,233.179 337.449,235.154 323.600 C 235.656 320.080,236.452 314.500,236.922 311.200 C 237.392 307.900,238.187 302.880,238.688 300.045 L 239.600 294.891 245.600 291.741 C 248.900 290.008,254.078 286.994,257.107 285.042 C 263.230 281.097,261.942 281.079,272.000 285.252 C 301.113 297.333,302.012 297.456,306.072 289.909 C 306.992 288.199,313.382 277.052,320.272 265.139 C 336.051 237.857,335.996 240.025,321.200 228.753 C 318.120 226.407,312.540 222.081,308.800 219.140 L 302.000 213.793 302.082 200.025 L 302.165 186.257 316.482 175.004 C 324.357 168.814,331.239 163.176,331.775 162.475 C 334.422 159.012,334.339 158.838,310.547 118.108 C 301.140 102.003,303.167 102.424,279.847 111.733 L 262.480 118.666 257.040 115.030 C 254.048 113.030,248.900 110.000,245.600 108.297 L 239.600 105.200 238.688 100.000 C 237.833 95.123,237.300 91.566,235.121 76.200 C 234.013 68.384,232.572 64.978,229.952 63.982 C 227.378 63.003,172.286 63.025,169.852 64.006 M212.400 153.905 C 265.751 168.365,255.256 247.592,200.000 247.515 C 144.371 247.438,134.501 164.745,188.804 153.709 C 191.222 153.218,193.920 152.652,194.800 152.451 C 197.413 151.856,208.094 152.738,212.400 153.905"
        stroke="none" fill="#ffffff" fill-rule="evenodd"/>
  </g>
</svg>